<svg
   height="24"
   viewBox="0 0 24 24"
   width="24"
   version="1.1"
   id="svg6"
   sodipodi:docname="add-24px.svg"
>
  <path
     d="M0 0h24v24H0z"
     fill="none"
     id="path2" />

  <path
     d="m 7.3401663,12.997021 h 3.6628127 v 3.662813 h 1.994042 v -3.662813 h 3.662813 v -1.994042 l -3.662813,0 V 7.3401663 h -1.994042 v 3.6628127 l -3.6628127,0 z m -2.4112341,6.074047 c 3.9103005,3.9103 10.2318348,3.9103 14.1421358,0 3.9103,-3.910301 3.9103,-10.2318353 0,-14.1421358 -3.910301,-3.9103005 -10.2318353,-3.9103005 -14.1421358,0 -3.9103005,3.9103005 -3.9103005,10.2318348 0,14.1421358 z M 17.656854,6.3431458 c 3.118341,3.1183409 3.118341,8.1953672 0,11.3137082 -3.118341,3.118341 -8.1953673,3.118341 -11.3137082,0 -3.118341,-3.118341 -3.118341,-8.1953673 0,-11.3137082 3.1183409,-3.118341 8.1953672,-3.118341 11.3137082,0 z"
     id="path4"
     inkscape:connector-curvature="0" />
</svg>
