<?xml version="1.0" encoding="UTF-8" standalone="no"?>
<!-- Created with Inkscape (http://www.inkscape.org/) -->

<svg
   xmlns:dc="http://purl.org/dc/elements/1.1/"
   xmlns:cc="http://creativecommons.org/ns#"
   xmlns:rdf="http://www.w3.org/1999/02/22-rdf-syntax-ns#"
   xmlns:svg="http://www.w3.org/2000/svg"
   xmlns="http://www.w3.org/2000/svg"
   xmlns:sodipodi="http://sodipodi.sourceforge.net/DTD/sodipodi-0.dtd"
   xmlns:inkscape="http://www.inkscape.org/namespaces/inkscape"
   width="5.8208332mm"
   height="3.9687498mm"
   viewBox="0 0 5.8208332 3.9687498"
   version="1.1"
   id="svg4681"
   inkscape:version="0.92.4 (5da689c313, 2019-01-14)"
   sodipodi:docname="visibility-24px_colored.svg">
  <defs
     id="defs4675">
    <clipPath
       clipPathUnits="userSpaceOnUse"
       id="clipPath5247">
      <g
         inkscape:label="Clip"
         id="use5249">
        <path
           inkscape:connector-curvature="0"
           d="M 12,4.5 C 7,4.5 2.73,7.61 1,12 c 1.73,4.39 6,7.5 11,7.5 5,0 9.27,-3.11 11,-7.5 C 21.27,7.61 17,4.5 12,4.5 Z M 12,17 C 9.24,17 7,14.76 7,12 7,9.24 9.24,7 12,7 c 2.76,0 5,2.24 5,5 0,2.76 -2.24,5 -5,5 z m 0,-8 c -1.66,0 -3,1.34 -3,3 0,1.66 1.34,3 3,3 1.66,0 3,-1.34 3,-3 0,-1.66 -1.34,-3 -3,-3 z"
           id="path5253" />
      </g>
    </clipPath>
  </defs>
  <sodipodi:namedview
     id="base"
     pagecolor="#ffffff"
     bordercolor="#666666"
     borderopacity="1.0"
     inkscape:pageopacity="0.0"
     inkscape:pageshadow="2"
     inkscape:zoom="15.839192"
     inkscape:cx="10.286082"
     inkscape:cy="1.9936784"
     inkscape:document-units="mm"
     inkscape:current-layer="g5240"
     showgrid="false"
     fit-margin-top="0"
     fit-margin-left="0"
     fit-margin-right="0"
     fit-margin-bottom="0"
     inkscape:window-width="1920"
     inkscape:window-height="1017"
     inkscape:window-x="1912"
     inkscape:window-y="-8"
     inkscape:window-maximized="1" />
  <metadata
     id="metadata4678">
    <rdf:RDF>
      <cc:Work
         rdf:about="">
        <dc:format>image/svg+xml</dc:format>
        <dc:type
           rdf:resource="http://purl.org/dc/dcmitype/StillImage" />
        <dc:title></dc:title>
      </cc:Work>
    </rdf:RDF>
  </metadata>
  <g
     inkscape:label="Layer 1"
     inkscape:groupmode="layer"
     id="layer1"
     transform="translate(-99.814407,-134.48762)">
    <g
       id="g5240"
       transform="matrix(0.26458333,0,0,0.26458333,99.63452,133.56309)">
      <path
         inkscape:connector-curvature="0"
         d="m 11.679889,3.4942858 c -4.9999999,0 -9.27,3.11 -10.99999998,7.5000002 1.72999998,4.389999 6.00000008,7.499999 10.99999998,7.499999 5,0 9.27,-3.11 11,-7.499999 -1.73,-4.3900002 -6,-7.5000002 -11,-7.5000002 z m 0,12.4999992 c -2.7599999,0 -4.9999999,-2.239999 -4.9999999,-4.999999 0,-2.7600001 2.24,-5.0000002 4.9999999,-5.0000002 2.76,0 5,2.2400001 5,5.0000002 0,2.76 -2.24,4.999999 -5,4.999999 z m 0,-7.9999991 c -1.66,0 -2.9999999,1.34 -2.9999999,3.0000001 0,1.66 1.3399999,3 2.9999999,3 1.66,0 3,-1.34 3,-3 0,-1.6600001 -1.34,-3.0000001 -3,-3.0000001 z"
         id="path5228"
         style="fill:#3da8cf;fill-opacity:0.94117647" />
    </g>
  </g>
</svg>
