<?xml version="1.0" encoding="UTF-8" standalone="no"?>
<!-- Created with Inkscape (http://www.inkscape.org/) -->

<svg
   xmlns:osb="http://www.openswatchbook.org/uri/2009/osb"
   xmlns:dc="http://purl.org/dc/elements/1.1/"
   xmlns:cc="http://creativecommons.org/ns#"
   xmlns:rdf="http://www.w3.org/1999/02/22-rdf-syntax-ns#"
   xmlns:svg="http://www.w3.org/2000/svg"
   xmlns="http://www.w3.org/2000/svg"
   xmlns:sodipodi="http://sodipodi.sourceforge.net/DTD/sodipodi-0.dtd"
   xmlns:inkscape="http://www.inkscape.org/namespaces/inkscape"
   width="5.8181882mm"
   height="5.0270829mm"
   viewBox="0 0 5.8181882 5.0270829"
   version="1.1"
   id="svg8"
   inkscape:version="0.92.4 (5da689c313, 2019-01-14)"
   sodipodi:docname="visibility_off-24px_colored.svg">
  <defs
     id="defs2">
    <linearGradient
       id="linearGradient4655"
       osb:paint="solid">
      <stop
         style="stop-color:#000000;stop-opacity:1;"
         offset="0"
         id="stop4653" />
    </linearGradient>
    <linearGradient
       id="linearGradient4649"
       osb:paint="solid">
      <stop
         style="stop-color:#000000;stop-opacity:1;"
         offset="0"
         id="stop4647" />
    </linearGradient>
  </defs>
  <sodipodi:namedview
     id="base"
     pagecolor="#ffffff"
     bordercolor="#666666"
     borderopacity="1.0"
     inkscape:pageopacity="0.0"
     inkscape:pageshadow="2"
     inkscape:zoom="15.839192"
     inkscape:cx="7.2743435"
     inkscape:cy="10.444659"
     inkscape:document-units="mm"
     inkscape:current-layer="layer1"
     showgrid="false"
     showguides="false"
     inkscape:window-width="1920"
     inkscape:window-height="1017"
     inkscape:window-x="1912"
     inkscape:window-y="-8"
     inkscape:window-maximized="1"
     fit-margin-top="0"
     fit-margin-left="0"
     fit-margin-right="0"
     fit-margin-bottom="0"
     inkscape:pagecheckerboard="false" />
  <metadata
     id="metadata5">
    <rdf:RDF>
      <cc:Work
         rdf:about="">
        <dc:format>image/svg+xml</dc:format>
        <dc:type
           rdf:resource="http://purl.org/dc/dcmitype/StillImage" />
        <dc:title></dc:title>
      </cc:Work>
    </rdf:RDF>
  </metadata>
  <g
     inkscape:label="Layer 1"
     inkscape:groupmode="layer"
     id="layer1"
     transform="translate(-64.36864,-58.001119)">
    <path
       id="path815"
       d="m 64.10476,57.211905 h 6.35 v 6.35 h -6.35 z m 0,0 h 6.35 v 6.35 h -6.35 z m 0,0 h 6.35 v 6.35 h -6.35 z m 0,0 h 6.35 v 6.35 h -6.35 z"
       inkscape:connector-curvature="0"
       style="opacity:1;fill:none;stroke-width:0.26458332" />
    <path
       style="opacity:1;fill:#3da8cc;fill-opacity:0.94117647;stroke-width:0.26458332"
       id="path817"
       d="m 67.279057,59.059452 c 0.73025,0 1.322917,0.592667 1.322917,1.322917 0,0.171979 -0.0344,0.333375 -0.09525,0.484187 l 0.772583,0.772584 c 0.399521,-0.333375 0.714375,-0.764646 0.907521,-1.256771 -0.457729,-1.161521 -1.5875,-1.984375 -2.910417,-1.984375 -0.370417,0 -0.724958,0.06615 -1.053042,0.185208 l 0.5715,0.5715 c 0.150813,-0.06085 0.312209,-0.09525 0.484188,-0.09525 z m -2.645833,-0.722312 0.60325,0.60325 0.121708,0.121708 c -0.439208,0.341313 -0.783167,0.796396 -0.989542,1.320271 0.457729,1.161521 1.5875,1.984375 2.910417,1.984375 0.410104,0 0.801687,-0.07937 1.158875,-0.22225 l 0.111125,0.111125 0.775229,0.772583 0.336021,-0.336021 -4.691063,-4.691062 z m 1.463145,1.463146 0.410105,0.410104 c -0.01323,0.05556 -0.02117,0.113771 -0.02117,0.171979 0,0.439208 0.354542,0.79375 0.79375,0.79375 0.05821,0 0.116417,-0.0079 0.171979,-0.02117 l 0.410104,0.410104 c -0.177271,0.08731 -0.373062,0.14023 -0.582083,0.14023 -0.73025,0 -1.322917,-0.592667 -1.322917,-1.322917 0,-0.209021 0.05292,-0.404813 0.140229,-0.582083 z m 1.140355,-0.206375 0.833437,0.833437 0.0053,-0.04233 c 0,-0.439209 -0.354542,-0.79375 -0.79375,-0.79375 z"
       inkscape:connector-curvature="0" />
    <path
       transform="scale(0.26458333)"
       inkscape:connector-curvature="0"
       id="path4598"
       d="m 260.38341,231.50273 -1.43914,-1.4442 0.0767,-0.20519 c 0.2078,-0.55618 0.31208,-1.35805 0.2599,-1.99832 -0.0583,-0.7151 -0.19583,-1.20865 -0.52078,-1.86867 -0.57203,-1.16189 -1.66184,-2.10901 -2.88769,-2.5096 -0.58837,-0.19227 -0.8671,-0.2335 -1.57835,-0.2335 -0.71894,0 -1.02827,0.0467 -1.56568,0.23638 l -0.27532,0.0972 -1.06909,-1.06806 -1.06909,-1.06807 0.35598,-0.11582 c 0.79793,-0.25959 1.80444,-0.46311 2.63768,-0.53336 0.56788,-0.0479 1.93459,-0.0213 2.43761,0.0475 2.22616,0.30415 4.1881,1.13832 5.90188,2.50934 1.52886,1.22308 2.81724,2.93928 3.53675,4.71117 l 0.0727,0.17907 -0.11937,0.27865 c -0.55836,1.30345 -1.36956,2.5338 -2.33134,3.53597 -0.34215,0.35653 -0.92125,0.89379 -0.96339,0.89379 -0.0114,0 -0.66841,-0.6499 -1.45993,-1.44421 z"
       style="opacity:1;fill:#3d55cc;fill-opacity:0;fill-rule:evenodd;stroke:none;stroke-width:0.03156727;stroke-miterlimit:4;stroke-dasharray:none;stroke-opacity:1;paint-order:stroke fill markers" />
    <path
       transform="scale(0.26458333)"
       inkscape:connector-curvature="0"
       id="path4600"
       d="m 260.38341,231.50273 -1.43914,-1.4442 0.0767,-0.20519 c 0.2078,-0.55618 0.31208,-1.35805 0.2599,-1.99832 -0.0583,-0.7151 -0.19583,-1.20865 -0.52078,-1.86867 -0.57203,-1.16189 -1.66184,-2.10901 -2.88769,-2.5096 -0.58837,-0.19227 -0.8671,-0.2335 -1.57835,-0.2335 -0.71894,0 -1.02827,0.0467 -1.56568,0.23638 l -0.27532,0.0972 -1.06909,-1.06806 -1.06909,-1.06807 0.35598,-0.11582 c 0.79793,-0.25959 1.80444,-0.46311 2.63768,-0.53336 0.56788,-0.0479 1.93459,-0.0213 2.43761,0.0475 2.22616,0.30415 4.1881,1.13832 5.90188,2.50934 1.52886,1.22308 2.81724,2.93928 3.53675,4.71117 l 0.0727,0.17907 -0.11937,0.27865 c -0.55836,1.30345 -1.36956,2.5338 -2.33134,3.53597 -0.34215,0.35653 -0.92125,0.89379 -0.96339,0.89379 -0.0114,0 -0.66841,-0.6499 -1.45993,-1.44421 z"
       style="opacity:1;fill:#3d7ecc;fill-opacity:0;fill-rule:evenodd;stroke:none;stroke-width:0.03156727;stroke-miterlimit:4;stroke-dasharray:none;stroke-opacity:1;paint-order:stroke fill markers" />
    <path
       transform="scale(0.26458333)"
       inkscape:connector-curvature="0"
       id="path4602"
       d="m 260.38341,231.50273 -1.43914,-1.4442 0.0767,-0.20519 c 0.2078,-0.55618 0.31208,-1.35805 0.2599,-1.99832 -0.0583,-0.7151 -0.19583,-1.20865 -0.52078,-1.86867 -0.57203,-1.16189 -1.66184,-2.10901 -2.88769,-2.5096 -0.58837,-0.19227 -0.8671,-0.2335 -1.57835,-0.2335 -0.71894,0 -1.02827,0.0467 -1.56568,0.23638 l -0.27532,0.0972 -1.06909,-1.06806 -1.06909,-1.06807 0.35598,-0.11582 c 0.79793,-0.25959 1.80444,-0.46311 2.63768,-0.53336 0.56788,-0.0479 1.93459,-0.0213 2.43761,0.0475 2.22616,0.30415 4.1881,1.13832 5.90188,2.50934 1.52886,1.22308 2.81724,2.93928 3.53675,4.71117 l 0.0727,0.17907 -0.11937,0.27865 c -0.55836,1.30345 -1.36956,2.5338 -2.33134,3.53597 -0.34215,0.35653 -0.92125,0.89379 -0.96339,0.89379 -0.0114,0 -0.66841,-0.6499 -1.45993,-1.44421 z"
       style="opacity:1;fill:#3d7ecc;fill-opacity:0;fill-rule:evenodd;stroke:none;stroke-width:0.03156727;stroke-miterlimit:4;stroke-dasharray:none;stroke-opacity:1;paint-order:stroke fill markers" />
    <path
       transform="scale(0.26458333)"
       inkscape:connector-curvature="0"
       id="path4604"
       d="m 260.38341,231.50273 -1.43914,-1.4442 0.0767,-0.20519 c 0.2078,-0.55618 0.31208,-1.35805 0.2599,-1.99832 -0.0583,-0.7151 -0.19583,-1.20865 -0.52078,-1.86867 -0.57203,-1.16189 -1.66184,-2.10901 -2.88769,-2.5096 -0.58837,-0.19227 -0.8671,-0.2335 -1.57835,-0.2335 -0.71894,0 -1.02827,0.0467 -1.56568,0.23638 l -0.27532,0.0972 -1.06909,-1.06806 -1.06909,-1.06807 0.35598,-0.11582 c 0.79793,-0.25959 1.80444,-0.46311 2.63768,-0.53336 0.56788,-0.0479 1.93459,-0.0213 2.43761,0.0475 2.22616,0.30415 4.1881,1.13832 5.90188,2.50934 1.52886,1.22308 2.81724,2.93928 3.53675,4.71117 l 0.0727,0.17907 -0.11937,0.27865 c -0.55836,1.30345 -1.36956,2.5338 -2.33134,3.53597 -0.34215,0.35653 -0.92125,0.89379 -0.96339,0.89379 -0.0114,0 -0.66841,-0.6499 -1.45993,-1.44421 z"
       style="opacity:1;fill:#3d7ecc;fill-opacity:0;fill-rule:evenodd;stroke:none;stroke-width:0.03156727;stroke-miterlimit:4;stroke-dasharray:none;stroke-opacity:1;paint-order:stroke fill markers" />
    <path
       transform="scale(0.26458333)"
       inkscape:connector-curvature="0"
       id="path4606"
       d="m 260.38341,231.50273 -1.43914,-1.4442 0.0767,-0.20519 c 0.2078,-0.55618 0.31208,-1.35805 0.2599,-1.99832 -0.0583,-0.7151 -0.19583,-1.20865 -0.52078,-1.86867 -0.57203,-1.16189 -1.66184,-2.10901 -2.88769,-2.5096 -0.58837,-0.19227 -0.8671,-0.2335 -1.57835,-0.2335 -0.71894,0 -1.02827,0.0467 -1.56568,0.23638 l -0.27532,0.0972 -1.06909,-1.06806 -1.06909,-1.06807 0.35598,-0.11582 c 0.79793,-0.25959 1.80444,-0.46311 2.63768,-0.53336 0.56788,-0.0479 1.93459,-0.0213 2.43761,0.0475 2.22616,0.30415 4.1881,1.13832 5.90188,2.50934 1.52886,1.22308 2.81724,2.93928 3.53675,4.71117 l 0.0727,0.17907 -0.11937,0.27865 c -0.55836,1.30345 -1.36956,2.5338 -2.33134,3.53597 -0.34215,0.35653 -0.92125,0.89379 -0.96339,0.89379 -0.0114,0 -0.66841,-0.6499 -1.45993,-1.44421 z"
       style="opacity:1;fill:#3d7ecc;fill-opacity:0;fill-rule:evenodd;stroke:none;stroke-width:0.03156727;stroke-miterlimit:4;stroke-dasharray:none;stroke-opacity:1;paint-order:stroke fill markers" />
    <path
       transform="scale(0.26458333)"
       inkscape:connector-curvature="0"
       id="path4608"
       d="m 260.33894,236.54525 c -1.17901,-1.17927 -1.68684,-1.66729 -1.72022,-1.65308 -0.026,0.0111 -0.2036,0.0763 -0.39459,0.14491 -3.19144,1.14663 -6.82872,0.8234 -9.77007,-0.86824 -2.23488,-1.28533 -3.99445,-3.2508 -5.00317,-5.58865 l -0.14753,-0.34192 0.0704,-0.17894 c 0.23832,-0.60571 0.82113,-1.66336 1.25107,-2.27035 0.61428,-0.86724 1.54736,-1.85467 2.32811,-2.46371 l 0.093,-0.0726 -1.37138,-1.37165 -1.37139,-1.37165 0.62339,-0.62339 0.62338,-0.62338 8.85472,8.85472 8.85471,8.85472 -0.6238,0.62321 -0.62379,0.62321 z m -5.3978,-3.34934 c 0.43265,-0.0553 1.0937,-0.24906 1.4282,-0.4187 l 0.13395,-0.0679 -0.78435,-0.78388 -0.78435,-0.78388 -0.24204,0.039 c -0.70295,0.1134 -1.49351,-0.0762 -2.11794,-0.50783 -0.56917,-0.39347 -0.99252,-1.00419 -1.17483,-1.69481 -0.067,-0.25371 -0.0816,-0.38109 -0.0826,-0.71873 -6.7e-4,-0.22571 0.0136,-0.46917 0.0316,-0.54103 l 0.0328,-0.13064 -0.77738,-0.77691 c -0.42755,-0.42731 -0.78616,-0.77692 -0.79691,-0.77692 -0.0415,0 -0.29242,0.66399 -0.37612,0.9953 -0.4164,1.64827 0.0309,3.39016 1.18563,4.61679 0.6016,0.63908 1.26617,1.06845 2.06313,1.33297 0.77766,0.2581 1.44152,0.32186 2.26126,0.21715 z"
       style="opacity:1;fill:#3d7ecc;fill-opacity:0;fill-rule:evenodd;stroke:none;stroke-width:0.03156727;stroke-miterlimit:4;stroke-dasharray:none;stroke-opacity:1;paint-order:stroke fill markers" />
    <path
       style="fill:#3d7ecc;fill-opacity:0;fill-rule:evenodd;stroke:none;stroke-width:0.03156727;stroke-miterlimit:4;stroke-dasharray:none;stroke-opacity:1;paint-order:stroke fill markers"
       d="m 260.39163,231.50309 -1.44188,-1.4442 0.0935,-0.27597 c 0.15896,-0.46941 0.22005,-0.81756 0.23958,-1.36553 0.0272,-0.76339 -0.0794,-1.39819 -0.34351,-2.04559 -0.27427,-0.67227 -0.60246,-1.16672 -1.11456,-1.67913 -0.55351,-0.55386 -1.17108,-0.94182 -1.90515,-1.19685 -0.59515,-0.20676 -0.88317,-0.25181 -1.6146,-0.25258 -0.71203,-7.4e-4 -1.00657,0.0431 -1.57113,0.23366 l -0.27555,0.093 -1.06541,-1.06429 -1.0654,-1.06428 0.35514,-0.11925 c 1.71968,-0.57741 3.75572,-0.71667 5.65844,-0.38703 3.87277,0.67095 7.22667,3.34249 8.79005,7.00169 l 0.12933,0.3027 -0.1899,0.43306 c -0.62969,1.43595 -1.65934,2.87315 -2.80284,3.91225 -0.21942,0.19938 -0.40687,0.36251 -0.41656,0.36251 -0.01,0 -0.66648,-0.64989 -1.45951,-1.4442 z"
       id="path4635"
       inkscape:connector-curvature="0"
       transform="scale(0.26458333)" />
    <path
       style="fill:#3d7ecc;fill-opacity:0;fill-rule:evenodd;stroke:none;stroke-width:0.03156727;stroke-miterlimit:4;stroke-dasharray:none;stroke-opacity:1;paint-order:stroke fill markers"
       d="m 260.39163,231.50309 -1.44188,-1.4442 0.0935,-0.27597 c 0.15896,-0.46941 0.22005,-0.81756 0.23958,-1.36553 0.0272,-0.76339 -0.0794,-1.39819 -0.34351,-2.04559 -0.27427,-0.67227 -0.60246,-1.16672 -1.11456,-1.67913 -0.55351,-0.55386 -1.17108,-0.94182 -1.90515,-1.19685 -0.59515,-0.20676 -0.88317,-0.25181 -1.6146,-0.25258 -0.71203,-7.4e-4 -1.00657,0.0431 -1.57113,0.23366 l -0.27555,0.093 -1.06541,-1.06429 -1.0654,-1.06428 0.35514,-0.11925 c 1.71968,-0.57741 3.75572,-0.71667 5.65844,-0.38703 3.87277,0.67095 7.22667,3.34249 8.79005,7.00169 l 0.12933,0.3027 -0.1899,0.43306 c -0.62969,1.43595 -1.65934,2.87315 -2.80284,3.91225 -0.21942,0.19938 -0.40687,0.36251 -0.41656,0.36251 -0.01,0 -0.66648,-0.64989 -1.45951,-1.4442 z"
       id="path4637"
       inkscape:connector-curvature="0"
       transform="scale(0.26458333)" />
    <path
       style="fill:#3d7ecc;fill-opacity:0;fill-rule:evenodd;stroke:none;stroke-width:0.03156727;stroke-miterlimit:4;stroke-dasharray:none;stroke-opacity:1;paint-order:stroke fill markers"
       d="m 260.39163,231.50309 -1.44188,-1.4442 0.0935,-0.27597 c 0.15896,-0.46941 0.22005,-0.81756 0.23958,-1.36553 0.0272,-0.76339 -0.0794,-1.39819 -0.34351,-2.04559 -0.27427,-0.67227 -0.60246,-1.16672 -1.11456,-1.67913 -0.55351,-0.55386 -1.17108,-0.94182 -1.90515,-1.19685 -0.59515,-0.20676 -0.88317,-0.25181 -1.6146,-0.25258 -0.71203,-7.4e-4 -1.00657,0.0431 -1.57113,0.23366 l -0.27555,0.093 -1.06541,-1.06429 -1.0654,-1.06428 0.35514,-0.11925 c 1.71968,-0.57741 3.75572,-0.71667 5.65844,-0.38703 3.87277,0.67095 7.22667,3.34249 8.79005,7.00169 l 0.12933,0.3027 -0.1899,0.43306 c -0.62969,1.43595 -1.65934,2.87315 -2.80284,3.91225 -0.21942,0.19938 -0.40687,0.36251 -0.41656,0.36251 -0.01,0 -0.66648,-0.64989 -1.45951,-1.4442 z"
       id="path4639"
       inkscape:connector-curvature="0"
       transform="scale(0.26458333)" />
    <path
       style="fill:#3d7ecc;fill-opacity:0;fill-rule:evenodd;stroke:none;stroke-width:0.03156727;stroke-miterlimit:4;stroke-dasharray:none;stroke-opacity:1;paint-order:stroke fill markers"
       d="m 260.39163,231.50309 -1.44188,-1.4442 0.0935,-0.27597 c 0.15896,-0.46941 0.22005,-0.81756 0.23958,-1.36553 0.0272,-0.76339 -0.0794,-1.39819 -0.34351,-2.04559 -0.27427,-0.67227 -0.60246,-1.16672 -1.11456,-1.67913 -0.55351,-0.55386 -1.17108,-0.94182 -1.90515,-1.19685 -0.59515,-0.20676 -0.88317,-0.25181 -1.6146,-0.25258 -0.71203,-7.4e-4 -1.00657,0.0431 -1.57113,0.23366 l -0.27555,0.093 -1.06541,-1.06429 -1.0654,-1.06428 0.35514,-0.11925 c 1.71968,-0.57741 3.75572,-0.71667 5.65844,-0.38703 3.87277,0.67095 7.22667,3.34249 8.79005,7.00169 l 0.12933,0.3027 -0.1899,0.43306 c -0.62969,1.43595 -1.65934,2.87315 -2.80284,3.91225 -0.21942,0.19938 -0.40687,0.36251 -0.41656,0.36251 -0.01,0 -0.66648,-0.64989 -1.45951,-1.4442 z"
       id="path4641"
       inkscape:connector-curvature="0"
       transform="scale(0.26458333)" />
    <path
       style="fill:#3d7ecc;fill-opacity:0;fill-rule:evenodd;stroke:none;stroke-width:0.03156727;stroke-miterlimit:4;stroke-dasharray:none;stroke-opacity:1;paint-order:stroke fill markers"
       d="m 260.39163,231.50309 -1.44188,-1.4442 0.0935,-0.27597 c 0.15896,-0.46941 0.22005,-0.81756 0.23958,-1.36553 0.0272,-0.76339 -0.0794,-1.39819 -0.34351,-2.04559 -0.27427,-0.67227 -0.60246,-1.16672 -1.11456,-1.67913 -0.55351,-0.55386 -1.17108,-0.94182 -1.90515,-1.19685 -0.59515,-0.20676 -0.88317,-0.25181 -1.6146,-0.25258 -0.71203,-7.4e-4 -1.00657,0.0431 -1.57113,0.23366 l -0.27555,0.093 -1.06541,-1.06429 -1.0654,-1.06428 0.35514,-0.11925 c 1.71968,-0.57741 3.75572,-0.71667 5.65844,-0.38703 3.87277,0.67095 7.22667,3.34249 8.79005,7.00169 l 0.12933,0.3027 -0.1899,0.43306 c -0.62969,1.43595 -1.65934,2.87315 -2.80284,3.91225 -0.21942,0.19938 -0.40687,0.36251 -0.41656,0.36251 -0.01,0 -0.66648,-0.64989 -1.45951,-1.4442 z"
       id="path4643"
       inkscape:connector-curvature="0"
       transform="scale(0.26458333)" />
    <path
       style="fill:#3d7ecc;fill-opacity:0;fill-rule:evenodd;stroke:none;stroke-width:0.03156727;stroke-miterlimit:4;stroke-dasharray:none;stroke-opacity:1;paint-order:stroke fill markers"
       d="m 260.39163,231.50309 -1.44188,-1.4442 0.0935,-0.27597 c 0.15896,-0.46941 0.22005,-0.81756 0.23958,-1.36553 0.0272,-0.76339 -0.0794,-1.39819 -0.34351,-2.04559 -0.27427,-0.67227 -0.60246,-1.16672 -1.11456,-1.67913 -0.55351,-0.55386 -1.17108,-0.94182 -1.90515,-1.19685 -0.59515,-0.20676 -0.88317,-0.25181 -1.6146,-0.25258 -0.71203,-7.4e-4 -1.00657,0.0431 -1.57113,0.23366 l -0.27555,0.093 -1.06541,-1.06429 -1.0654,-1.06428 0.35514,-0.11925 c 1.71968,-0.57741 3.75572,-0.71667 5.65844,-0.38703 3.87277,0.67095 7.22667,3.34249 8.79005,7.00169 l 0.12933,0.3027 -0.1899,0.43306 c -0.62969,1.43595 -1.65934,2.87315 -2.80284,3.91225 -0.21942,0.19938 -0.40687,0.36251 -0.41656,0.36251 -0.01,0 -0.66648,-0.64989 -1.45951,-1.4442 z"
       id="path4645"
       inkscape:connector-curvature="0"
       transform="scale(0.26458333)" />
  </g>
</svg>
